<svg width="30" height="30" viewBox="0 0 30 30" fill="none" xmlns="http://www.w3.org/2000/svg">
<g clip-path="url(#clip0_663_4963)">
<path d="M27.4303 21.7968C27.3393 21.5407 27.0579 21.4068 26.8018 21.4978C26.5457 21.5886 26.4118 21.87 26.5027 22.1262C26.7858 22.9238 26.4991 23.8211 25.8055 24.3083C24.9509 24.9084 23.7675 24.7017 23.1672 23.8471C22.8765 23.4332 22.7643 22.9307 22.8514 22.4324C22.9385 21.934 23.2145 21.4995 23.6284 21.2087C24.2543 20.7691 25.0773 20.7479 25.7251 21.1546C25.9554 21.2991 26.259 21.2296 26.4036 20.9995C26.5481 20.7693 26.4786 20.4656 26.2485 20.321C25.2642 19.703 24.0137 19.7353 23.0628 20.4033C21.7641 21.3154 21.4496 23.114 22.3618 24.4127C22.9214 25.2094 23.8143 25.6356 24.7211 25.6355C25.2924 25.6355 25.8693 25.4662 26.3712 25.1136C27.4252 24.3734 27.8606 23.0095 27.4303 21.7968Z" fill="black"/>
<path d="M28.4024 19.9575C27.7189 19.0565 26.7256 18.4394 25.6059 18.22C24.4857 18.0004 23.3332 18.1974 22.3606 18.7742C22.0527 18.9569 21.7696 19.1717 21.5144 19.4162L17.614 13.8631L19.3785 3.77047C20.3608 5.45064 20.7275 7.43889 20.3883 9.37927L19.3851 15.1174C19.3383 15.3851 19.5174 15.6401 19.7852 15.6869C19.8138 15.6919 19.8424 15.6944 19.8705 15.6944C20.1052 15.6944 20.3129 15.5259 20.3546 15.2869L21.3578 9.54879C21.8133 6.94378 21.1314 4.26177 19.4871 2.19049C19.3666 2.03874 19.1685 1.97171 18.9805 2.01958C18.7927 2.06733 18.6503 2.22085 18.6169 2.41174L16.814 12.7241L14.0636 8.8084C13.9074 8.58598 13.6005 8.53231 13.3781 8.68852C13.1557 8.84467 13.102 9.1517 13.2582 9.37406L19.4593 18.2028L18.252 19.895L12.3525 11.4958C11.2209 9.8847 10.7072 7.93049 10.8816 5.99046L12.297 8.00555C12.4532 8.22797 12.7602 8.28158 12.9825 8.12543C13.2049 7.96928 13.2586 7.66231 13.1024 7.43989L10.9927 4.43632C10.8814 4.27771 10.6872 4.19967 10.4969 4.23629C10.3066 4.27297 10.1554 4.41822 10.1109 4.60689C9.50377 7.18055 10.0272 9.89759 11.5472 12.0615L15.8571 18.1977L15.4644 20.4438C15.2429 20.3693 15.0156 20.3114 14.7842 20.271C13.5665 20.0582 12.3385 20.3323 11.3266 21.0431C10.3148 21.7538 9.64023 22.8158 9.4273 24.0336C9.21432 25.2516 9.48854 26.4797 10.1993 27.4915C10.91 28.5032 11.972 29.1776 13.1899 29.3905C13.4594 29.4376 13.7292 29.4609 13.9972 29.4609C14.9407 29.4609 15.8598 29.1723 16.6478 28.6189C17.6595 27.9082 18.3339 26.8461 18.5469 25.628L19.0509 22.7448L20.8908 25.3643C21.6185 26.4003 22.7057 27.0899 23.9523 27.306C24.2211 27.3526 24.49 27.3757 24.7567 27.3757C25.6976 27.3757 26.6104 27.0889 27.3886 26.5391C28.4226 25.8085 29.0986 24.7168 29.292 23.4651C29.4852 22.2138 29.1693 20.9681 28.4024 19.9575ZM17.5772 25.4583C17.4096 26.4175 16.8785 27.2538 16.0819 27.8133C15.2854 28.3728 14.3186 28.5886 13.3593 28.4208C12.4005 28.2532 11.5642 27.7222 11.0046 26.9256C10.445 26.1289 10.2292 25.162 10.3969 24.203C10.5645 23.2441 11.0956 22.408 11.8923 21.8483C12.6891 21.2887 13.656 21.0729 14.6148 21.2405C14.966 21.3019 15.3051 21.4139 15.6225 21.5733C15.7617 21.6433 15.9255 21.6432 16.0646 21.5733C16.2036 21.5033 16.3014 21.3717 16.3283 21.2184L16.6573 19.3367L18.2509 21.6057L17.5772 25.4583ZM28.3191 23.3146C28.1669 24.3002 27.6346 25.1598 26.8205 25.735C26.0369 26.2886 25.0779 26.5021 24.1203 26.3361C23.1333 26.165 22.2723 25.6188 21.6961 24.7984L19.1743 21.208C19.1737 21.2071 19.1731 21.2063 19.1725 21.2054L18.8519 20.7489L20.0593 19.0567L21.0622 20.4846C21.1516 20.6119 21.296 20.6895 21.4516 20.6937C21.6077 20.6985 21.7554 20.6282 21.8517 20.506C22.1313 20.1507 22.4715 19.8529 22.8629 19.6207C23.6273 19.1673 24.5345 19.0128 25.4168 19.1858C26.2993 19.3587 27.0812 19.8441 27.6186 20.5524C28.2225 21.3486 28.4714 22.3296 28.3191 23.3146Z" fill="#585050"/>
<path d="M14.4824 21.9958C13.725 21.8634 12.9616 22.0338 12.3326 22.4757C11.7035 22.9175 11.2841 23.5779 11.1517 24.3352C10.8784 25.8985 11.9279 27.3927 13.4911 27.6659C13.6585 27.6952 13.8263 27.7097 13.9928 27.7097C14.5794 27.7097 15.1509 27.5302 15.6409 27.1861C16.2701 26.7443 16.6894 26.0839 16.8218 25.3266C17.0951 23.7632 16.0456 22.2691 14.4824 21.9958ZM15.8523 25.157C15.6725 26.1857 14.6896 26.8766 13.6605 26.6964C12.6319 26.5166 11.9413 25.5334 12.1212 24.5046C12.301 23.476 13.284 22.7854 14.3129 22.9653C15.3416 23.1452 16.0322 24.1284 15.8523 25.157Z" fill="black"/>
<path d="M18.1122 17.134C17.9268 17.0357 17.6934 17.0663 17.5411 17.2114C17.3693 17.3752 17.3414 17.6435 17.4715 17.841C17.7112 18.2051 18.2902 18.0778 18.3647 17.652C18.4008 17.4455 18.2977 17.2323 18.1122 17.134Z" fill="black"/>
<path d="M9.87525 18.6184L9.87173 18.5987C9.75243 17.9354 9.17669 17.4538 8.50275 17.4538H6.00098C5.54665 17.4538 5.12923 17.2818 4.87235 17.0168H8.08715C8.3589 17.0168 8.57927 16.7965 8.57927 16.5247C8.57927 16.2529 8.35896 16.0326 8.08715 16.0326H4.50738C4.44843 15.7516 4.3937 15.4703 4.34325 15.1888H7.80824C8.08 15.1888 8.30037 14.9685 8.30037 14.6967C8.30037 14.4248 8.08006 14.2045 7.80824 14.2045H4.18347C4.14298 13.9236 4.10642 13.6426 4.07431 13.3614H7.69668C7.96844 13.3614 8.18881 13.1411 8.18881 12.8692C8.18881 12.5975 7.96849 12.3771 7.69668 12.3771H3.97974C3.95742 12.096 3.93931 11.8147 3.92537 11.5333H7.69668C7.96844 11.5333 8.18881 11.313 8.18881 11.0412C8.18881 10.7694 7.96849 10.5491 7.69668 10.5491H3.89302C3.8888 10.2678 3.8888 9.98656 3.89302 9.70525H7.73348C8.00523 9.70525 8.2256 9.48494 8.2256 9.21313C8.2256 8.94131 8.00529 8.721 7.73348 8.721H3.92537C3.93925 8.43993 3.95736 8.1588 3.97968 7.87784H7.80824C8.08 7.87784 8.30037 7.65753 8.30037 7.38571C8.30037 7.1139 8.08006 6.89359 7.80824 6.89359H4.07425C4.10642 6.61216 4.14292 6.33097 4.18353 6.04978H7.92443C8.19619 6.04978 8.41656 5.82947 8.41656 5.55765C8.41656 5.28584 8.19625 5.06553 7.92443 5.06553H4.34325C4.39376 4.78404 4.44843 4.50274 4.50743 4.22172H8.08715C8.3589 4.22172 8.57927 4.00141 8.57927 3.72959C8.57927 3.45784 8.35896 3.23747 8.08715 3.23747H4.87224C5.12911 2.97251 5.54665 2.80042 6.00092 2.80042H8.50269C9.17722 2.80042 9.75296 2.31872 9.87179 1.65492L9.87501 1.63693C9.94825 1.23052 9.83827 0.815563 9.57331 0.498631C9.30829 0.181816 8.91929 0 8.50597 0H3.81749C2.68295 0 1.68205 0.767985 1.38352 1.86755C0.824245 3.92817 0.297665 8.72252 0.965689 19.8606C0.981978 20.1319 1.21536 20.3392 1.48635 20.3223C1.75764 20.3061 1.96442 20.073 1.94813 19.8016C1.42577 11.0909 1.55895 4.97857 2.33344 2.12536C2.51578 1.45353 3.12615 0.984254 3.81749 0.984254H8.50597C8.67144 0.984254 8.77263 1.07572 8.81822 1.13027C8.86369 1.1847 8.93564 1.30025 8.90523 1.46923L8.90294 1.48206C8.86826 1.67595 8.69992 1.81663 8.50269 1.81663H6.00092C4.86696 1.81663 3.8864 2.50212 3.66943 3.44659C2.6506 7.87972 2.6506 12.3752 3.66943 16.8083C3.8864 17.7527 4.86696 18.4382 6.00092 18.4382H8.50269C8.69974 18.4382 8.86808 18.579 8.90294 18.7727L8.90646 18.7925C8.9357 18.9551 8.8638 19.0706 8.81828 19.1249C8.77281 19.1792 8.67185 19.2705 8.50668 19.2705H6.8602C5.91227 19.2705 5.11581 20.0111 5.04702 20.9566L4.52648 28.1141C4.48974 28.6197 4.06376 29.0158 3.55681 29.0158C3.05203 29.0158 2.6359 28.6369 2.58885 28.1344C2.4508 26.6605 2.24731 24.3283 2.06203 21.5877C2.04375 21.3165 1.80826 21.1113 1.53786 21.1299C1.26668 21.1482 1.06178 21.3829 1.08006 21.6541C1.2661 24.4053 1.47036 26.7465 1.60893 28.2261C1.70362 29.2375 2.54103 30.0001 3.55681 30.0001C4.57698 30.0001 5.43403 29.203 5.50815 28.1855L6.0287 21.0281C6.06022 20.5945 6.42549 20.2548 6.86026 20.2548H8.50673C8.91964 20.2547 9.30847 20.073 9.57337 19.7562C9.83821 19.4393 9.94825 19.0246 9.87525 18.6184Z" fill="#585050"/>
</g>
<defs>
<clipPath id="clip0_663_4963">
<rect width="30" height="30" fill="white"/>
</clipPath>
</defs>
</svg>
