<svg width="30" height="34" viewBox="0 0 30 34" fill="none" xmlns="http://www.w3.org/2000/svg">
<path d="M29.2175 2.18763C28.9347 2.00195 28.5806 1.97107 28.2701 2.10535L25.4851 3.30949L12.505 0.34538C12.1441 0.236938 11.7731 0.152137 11.3933 0.0941642C11.3895 0.093633 11.3856 0.0930353 11.3818 0.0925705C10.98 0.0317423 10.5688 0 10.1504 0C5.63219 0 1.95639 3.67579 1.95639 8.19402C1.95639 12.7122 5.63219 16.388 10.1504 16.388C11.1571 16.388 12.1218 16.2051 13.0136 15.8715V25.9686C13.0136 27.5474 11.7292 28.8318 10.1504 28.8318C8.5716 28.8318 7.28723 27.5474 7.28723 25.9686V17.6628C7.28723 17.3475 7.0317 17.092 6.71647 17.092C6.40124 17.092 6.14571 17.3475 6.14571 17.6628V25.9684C6.14571 27.9828 7.64098 29.6538 9.57965 29.9317V31.831C9.57965 32.3975 9.11879 32.8584 8.55221 32.8584H5.69594C5.12942 32.8584 4.6685 32.3975 4.6685 31.831V23.9541C4.6685 22.7581 3.69551 21.7851 2.49953 21.7851C1.30355 21.7851 0.330566 22.7581 0.330566 23.9541V28.1019C0.330566 28.4171 0.586098 28.6726 0.901329 28.6726C1.21656 28.6726 1.47209 28.4171 1.47209 28.1019V23.9541C1.47209 23.3876 1.93295 22.9267 2.49953 22.9267C3.06604 22.9267 3.52697 23.3875 3.52697 23.9541V31.831C3.52697 33.0269 4.49996 33.9999 5.69594 33.9999H8.55221C9.74819 33.9999 10.7212 33.0269 10.7212 31.831V29.9317C12.66 29.6538 14.1552 27.9828 14.1552 25.9684V15.3403C16.6531 13.935 18.3445 11.2585 18.3445 8.19402C18.3445 5.86687 17.3693 3.76325 15.8062 2.27023L24.9697 4.36277V11.2781L17.7492 13.3181C17.4458 13.4037 17.2693 13.7192 17.3551 14.0225C17.4262 14.2741 17.6551 14.4383 17.904 14.4383C17.9554 14.4383 18.0076 14.4313 18.0595 14.4166L25.5002 12.3144L28.2703 13.512C28.3983 13.5674 28.5335 13.5946 28.6683 13.5946C28.8605 13.5946 29.0515 13.5389 29.2178 13.4297C29.5004 13.2439 29.6692 12.931 29.6692 12.5928V3.02454C29.669 2.68627 29.5002 2.37343 29.2175 2.18763ZM17.2028 8.19402C17.2028 12.0828 14.0391 15.2464 10.1503 15.2464C6.26159 15.2464 3.09792 12.0828 3.09792 8.19402C3.09792 4.30526 6.26172 1.14159 10.1504 1.14159C10.5126 1.14159 10.8685 1.16915 11.2161 1.22201L12.2148 1.45005C15.0993 2.33485 17.2028 5.02324 17.2028 8.19402ZM28.5274 12.3795L26.1111 11.3348V4.28261L28.5274 3.23784V12.3795Z" fill="#585050"/>
</svg>
