<svg width="28" height="20" viewBox="0 0 28 20" fill="none" xmlns="http://www.w3.org/2000/svg">
<path d="M27.6305 9.11563C26.5993 7.59375 21.293 0 18.4024 0C17.3086 0 16.3274 0.871875 15.3805 1.71875C14.9243 2.125 14.1586 2.80625 13.8836 2.80625C13.5711 2.80625 12.7586 2.09375 12.2711 1.66563C11.3461 0.85625 10.393 0.0187502 9.38365 0.0187502H9.3649C6.4774 0.0531252 1.17115 7.6 0.136775 9.1125C-0.0226002 9.34688 -0.0444753 9.65 0.0805247 9.90625C0.130525 10.0094 1.3274 12.4281 3.6024 14.8719C6.66177 18.1594 10.218 19.8969 13.8836 19.8969C15.6212 19.8969 17.3336 19.5125 18.9711 18.7562C19.3618 18.575 19.5368 18.1094 19.3555 17.7156C19.1743 17.3219 18.7118 17.15 18.3211 17.3281C16.8868 17.9906 15.393 18.325 13.8805 18.325C7.00552 18.325 2.6774 11.3687 1.6899 9.60938C4.42427 5.69063 8.04928 1.60625 9.37428 1.59063H9.3774C9.8024 1.59063 10.6336 2.31875 11.2399 2.85C12.1336 3.63438 12.9805 4.375 13.8774 4.375C14.743 4.375 15.5493 3.65625 16.4086 2.89375C17.0711 2.30313 17.8962 1.56875 18.3993 1.56875C19.7211 1.56875 23.343 5.66875 26.0711 9.60625C25.5555 10.5312 24.1211 12.8969 21.8836 14.9219C21.5618 15.2125 21.5368 15.7094 21.8243 16.0312C22.1118 16.3531 22.6055 16.3813 22.9243 16.0906C25.993 13.3125 27.6149 10.0406 27.6805 9.90312C27.8118 9.65312 27.7899 9.35 27.6305 9.11563ZM22.693 10.2719C22.8711 9.875 22.6961 9.4125 22.3024 9.23125C22.293 9.22812 21.5086 8.86875 20.9524 8.55313C18.6211 7.23125 16.8899 7.95 15.6243 8.475C15.0649 8.70625 14.5836 8.90625 14.1618 8.90625C13.7211 8.90625 13.3211 8.70625 12.8118 8.45625C11.693 7.9 10.1555 7.14062 7.48365 8.55C6.91803 8.85 6.04927 9.21562 6.0399 9.21875C5.64302 9.3875 5.45552 9.84688 5.62115 10.2469C5.74615 10.5469 6.03678 10.7281 6.3399 10.7281C6.4399 10.7281 6.54303 10.7094 6.6399 10.6687C6.6774 10.6531 7.58053 10.2719 8.20553 9.94063C10.1743 8.9 11.0774 9.34688 12.1212 9.86563C12.7305 10.1656 13.3587 10.4781 14.1587 10.4781C14.893 10.4781 15.5649 10.1969 16.218 9.92812C17.3993 9.4375 18.5118 8.975 20.1836 9.92188C20.7993 10.2688 21.6211 10.6437 21.6555 10.6625C22.0586 10.8437 22.518 10.6687 22.693 10.2719Z" fill="#585050"/>
</svg>
