<svg width="26" height="31" viewBox="0 0 26 31" fill="none" xmlns="http://www.w3.org/2000/svg">
<path d="M9.59391 0.0400391C7.58826 0.0400391 6.04345 1.86474 6.22719 3.90997L7.18036 14.4854C7.2089 14.802 7.41676 15.032 7.56775 15.2948C7.10064 15.5241 6.71802 15.8988 6.4788 16.3571C5.16715 16.1573 4.16775 15.0419 4.16775 13.672C4.7208 13.672 5.23745 13.4446 5.60816 13.0676C5.9852 12.6969 6.21255 12.1802 6.21255 11.6272C6.21255 11.2556 6.11221 10.9043 5.93432 10.6008C5.57973 9.99426 4.91708 9.5824 4.16775 9.5824H2.80456C2.25151 9.5824 1.73486 9.80975 1.36415 10.1868C0.987109 10.5575 0.759766 11.0741 0.759766 11.6272C0.759766 12.7487 1.68302 13.672 2.80456 13.672C2.80456 15.6995 4.30004 17.3891 6.24183 17.7043C6.38533 18.8804 7.38578 19.8064 8.59814 19.8064H12.3469V21.8512H11.6653C11.4846 21.8512 11.3112 21.923 11.1834 22.0508C11.0556 22.1786 10.9837 22.352 10.9837 22.5328V25.2591C9.85854 25.2591 8.71799 25.6934 7.8127 26.4027C6.90742 27.112 6.21255 28.1413 6.21255 29.3487C6.21127 29.4391 6.22795 29.5287 6.26163 29.6125C6.29532 29.6964 6.34532 29.7726 6.40874 29.837C6.47216 29.9013 6.54773 29.9524 6.63106 29.9872C6.71439 30.0221 6.80381 30.04 6.89414 30.04C6.98447 30.04 7.0739 30.0221 7.15723 29.9872C7.24056 29.9524 7.31613 29.9013 7.37955 29.837C7.44297 29.7726 7.49297 29.6964 7.52665 29.6125C7.56033 29.5287 7.57702 29.4391 7.57574 29.3487C7.57574 28.6743 7.98501 27.9999 8.65405 27.4757C9.32309 26.9515 10.227 26.6223 10.9837 26.6223H11.6653H12.3469V29.3487C12.3456 29.4391 12.3623 29.5287 12.396 29.6125C12.4297 29.6964 12.4797 29.7726 12.5431 29.837C12.6065 29.9013 12.6821 29.9524 12.7654 29.9872C12.8488 30.0221 12.9382 30.04 13.0285 30.04C13.1188 30.04 13.2083 30.0221 13.2916 29.9872C13.3749 29.9524 13.4505 29.9013 13.5139 29.837C13.5773 29.7726 13.6273 29.6964 13.661 29.6125C13.6947 29.5287 13.7114 29.4391 13.7101 29.3487V26.6223H14.3917H15.0733C15.83 26.6223 16.734 26.9515 17.403 27.4757C18.072 27.9999 18.4813 28.6743 18.4813 29.3487C18.48 29.4391 18.4967 29.5287 18.5304 29.6125C18.5641 29.6964 18.6141 29.7726 18.6775 29.837C18.7409 29.9013 18.8165 29.9524 18.8998 29.9872C18.9831 30.0221 19.0726 30.04 19.1629 30.04C19.2532 30.04 19.3427 30.0221 19.426 29.9872C19.5093 29.9524 19.5849 29.9013 19.6483 29.837C19.7117 29.7726 19.7617 29.6964 19.7954 29.6125C19.8291 29.5287 19.8458 29.4391 19.8445 29.3487C19.8445 28.1413 19.1496 27.112 18.2443 26.4027C17.3391 25.6934 16.1985 25.2591 15.0733 25.2591V22.5328C15.0733 22.352 15.0015 22.1786 14.8737 22.0508C14.7458 21.923 14.5725 21.8512 14.3917 21.8512H13.7101V19.8064H17.4589C18.6713 19.8064 19.6717 18.8804 19.8152 17.7043C21.757 17.3891 23.2525 15.6995 23.2525 13.672C23.8055 13.672 24.3222 13.4446 24.6929 13.0676C25.0699 12.6969 25.2973 12.1802 25.2973 11.6272C25.2973 10.5057 24.374 9.5824 23.2525 9.5824H21.8893C21.3362 9.5824 20.8196 9.80975 20.4489 10.1868C20.3065 10.3235 20.2011 10.4693 20.1254 10.5955C20.1245 10.5973 20.1236 10.599 20.1227 10.6008C19.9448 10.9043 19.8445 11.2556 19.8445 11.6272C19.8445 12.7487 20.7678 13.672 21.8893 13.672C21.8893 15.0419 20.8899 16.1573 19.5782 16.3571C19.339 15.8988 18.9564 15.5241 18.4893 15.2948C18.6402 15.0322 18.8495 14.8018 18.878 14.4854L19.8299 3.90997C20.0136 1.86474 18.4688 0.0400391 16.4631 0.0400391H9.59391ZM9.59391 1.40323H16.4631C17.6405 1.40323 18.5895 2.47927 18.472 3.78749L17.5201 14.3629C17.4834 14.7699 17.185 15.0352 16.8545 15.0352H9.20252C8.872 15.0352 8.57372 14.7713 8.5369 14.3629L7.58506 3.78749C7.46753 2.47927 8.41649 1.40323 9.59391 1.40323ZM2.80456 10.9456H4.16775C4.42651 10.9456 4.63605 11.0786 4.75883 11.2891V11.2904C4.81267 11.3822 4.84935 11.508 4.84935 11.6272C4.84935 11.8203 4.77655 11.9802 4.65366 12.0998C4.64916 12.1042 4.64472 12.1086 4.64035 12.1131C4.52077 12.236 4.36087 12.3088 4.16775 12.3088H3.60064C3.52704 12.2966 3.45193 12.2966 3.37832 12.3088H2.80456C2.42658 12.3088 2.12296 12.0052 2.12296 11.6272C2.12296 11.4341 2.19576 11.2742 2.31865 11.1546C2.32315 11.1502 2.32759 11.1458 2.33197 11.1413C2.45154 11.0184 2.61144 10.9456 2.80456 10.9456ZM21.8893 10.9456H23.2525C23.6305 10.9456 23.9341 11.2492 23.9341 11.6272C23.9341 11.8203 23.8613 11.9802 23.7384 12.0998C23.7339 12.1042 23.7295 12.1086 23.7251 12.1131C23.6055 12.236 23.4456 12.3088 23.2525 12.3088H22.6854C22.6118 12.2966 22.5367 12.2966 22.4631 12.3088H21.8893C21.5113 12.3088 21.2077 12.0052 21.2077 11.6272C21.2077 11.508 21.2444 11.3822 21.2982 11.2904C21.3385 11.2244 21.3685 11.1865 21.3901 11.1666C21.3992 11.1584 21.4081 11.15 21.4167 11.1413C21.5363 11.0184 21.6962 10.9456 21.8893 10.9456ZM8.59814 16.3984H9.20252H16.8545H17.4589C18.032 16.3984 18.4813 16.8477 18.4813 17.4208C18.4813 17.9939 18.032 18.4432 17.4589 18.4432H13.143C13.0694 18.431 12.9943 18.431 12.9207 18.4432H8.59814C8.02504 18.4432 7.57574 17.9939 7.57574 17.4208C7.57574 16.8477 8.02504 16.3984 8.59814 16.3984ZM12.3469 23.2144H12.914C12.9876 23.2265 13.0627 23.2265 13.1364 23.2144H13.7101V25.2591H13.143C13.0694 25.247 12.9943 25.247 12.9207 25.2591H12.3469V23.2144Z" fill="#585050"/>
</svg>
